<?xml version="1.0" encoding="UTF-8"?>
<svg width="375px" height="260px" viewBox="0 0 375 260" version="1.1" xmlns="http://www.w3.org/2000/svg" xmlns:xlink="http://www.w3.org/1999/xlink">
    <!-- Generator: Sketch 52.1 (67048) - http://www.bohemiancoding.com/sketch -->
    <title>头部BG</title>
    <desc>Created with Sketch.</desc>
    <defs>
        <linearGradient x1="52.4956597%" y1="2.18642426%" x2="52.4956597%" y2="54.6149789%" id="linearGradient-1">
            <stop stop-color="#8C31FF" offset="0%"></stop>
            <stop stop-color="#7926FF" offset="100%"></stop>
        </linearGradient>
        <polygon id="path-2" points="0 0 375 0 375 260 0 260"></polygon>
        <linearGradient x1="50%" y1="100%" x2="50%" y2="3.061617e-15%" id="linearGradient-4">
            <stop stop-color="#6933D4" offset="0%"></stop>
            <stop stop-color="#873FEE" offset="100%"></stop>
        </linearGradient>
        <linearGradient x1="50%" y1="97.2814306%" x2="50%" y2="3.35756864%" id="linearGradient-5">
            <stop stop-color="#6933D4" offset="0%"></stop>
            <stop stop-color="#8C4CE5" offset="100%"></stop>
        </linearGradient>
        <linearGradient x1="4.02236702%" y1="0%" x2="69.2498966%" y2="23.1374268%" id="linearGradient-6">
            <stop stop-color="#812BFF" offset="0%"></stop>
            <stop stop-color="#6717E2" offset="78.0708092%"></stop>
            <stop stop-color="#6515E0" stop-opacity="0.453379755" offset="100%"></stop>
        </linearGradient>
        <linearGradient x1="50%" y1="100%" x2="50%" y2="3.061617e-15%" id="linearGradient-7">
            <stop stop-color="#591AD6" offset="0%"></stop>
            <stop stop-color="#873FEE" offset="100%"></stop>
        </linearGradient>
        <polygon id="path-8" points="0.0652092784 0.0693683318 5.90367794 0.0693683318 5.90367794 4.24663763 0.0652092784 4.24663763"></polygon>
        <polygon id="path-10" points="0.0209456777 0.0871713992 6.40015256 0.0871713992 6.40015256 16.7069629 0.0209456777 16.7069629"></polygon>
        <polygon id="path-12" points="0 0.0751976034 1.35644784 0.0751976034 1.35644784 1.46778052 0 1.46778052"></polygon>
        <polygon id="path-14" points="0.106681028 0.182125365 6.52123269 0.182125365 6.52123269 2.76425577 0.106681028 2.76425577"></polygon>
        <polygon id="path-16" points="0.126163205 0.0285472232 1.88820884 0.0285472232 1.88820884 5.20290755 0.126163205 5.20290755"></polygon>
    </defs>
    <g id="Page-1" stroke="none" stroke-width="1" fill="none" fill-rule="evenodd">
        <g id="首页-无输入-copy">
            <g id="头部BG">
                <g id="Group-6-Copy-10-+-Path-20-+-路径-9-copy-2-+-路径-9-copy-3-+-Group-6-Copy-10-+-Group-6-Copy-12-+-Group-6-Copy-13-+-Group-6-Copy-11-+-Path-5-+-分组-6-+-Page-1-+-Page-1-Mask">
                    <mask id="mask-3" fill="white">
                        <use xlink:href="#path-2"></use>
                    </mask>
                    <use id="Mask" fill="url(#linearGradient-1)" fill-rule="nonzero" xlink:href="#path-2"></use>
                    <g id="Group-6-Copy-10" opacity="0.536504836" mask="url(#mask-3)">
                        <g transform="translate(235.000000, 70.000000)">
                            <polygon id="Path-30" fill="#9A45F1" points="11.8592179 0 23.7333333 6.65798298 11.8592179 13.3 0 6.63647147"></polygon>
                            <polygon id="Path-31" fill="url(#linearGradient-4)" points="12.0996094 49.65 23.7333333 42.9683541 23.7333333 6.65 11.392 13.4650911"></polygon>
                            <polygon id="Path-33" fill="#9A45F1" points="14.24 14.7697814 14.24 16.15 21.8346667 11.7844509 21.8346667 10.45"></polygon>
                            <polygon id="Path-33" fill="#9A45F1" points="14.24 16.6697814 14.24 18.05 21.8346667 13.6844509 21.8346667 12.35"></polygon>
                            <polygon id="Path-31" fill="url(#linearGradient-5)" transform="translate(6.170667, 47.163095) scale(-1, 1) translate(-6.170667, -47.163095) " points="-9.09494702e-13 87.6761905 12.3413333 80.6914445 12.3413333 6.65 -9.09494702e-13 13.5371799"></polygon>
                        </g>
                    </g>
                    <path d="M62.1968413,104.553711 C74.8999663,106.764887 103.339844,114.042675 120.863281,123 C129.078639,127.199383 158.444358,139.953498 182.408203,149 C187.530923,150.933859 180.917556,143.85175 182.408203,138.176667 C183.33674,134.641609 191.797202,133.67883 194.003906,131.350678 C195.248124,130.037983 193.240348,126.944591 189.879625,126.021002 C167.460366,119.859774 143.908755,114.818466 138,113 C126.089844,109.334556 83.5488281,100.62644 79.6210937,96 C75.6933594,91.3735598 49.4937163,102.342534 62.1968413,104.553711 Z" id="Path-20" fill="url(#linearGradient-6)" fill-rule="nonzero" opacity="0.299999982" mask="url(#mask-3)"></path>
                    <path d="M26.1413854,76.1108966 C29.3128431,73.5745315 31.422436,72.8819668 32.4701638,74.0332026 C33.5178917,75.1844384 32.1592431,77.0106725 28.3942181,79.5119049 L27.5571249,93 L24.3231092,82.6127379 L17.7448377,86.1184557 L16.8981386,90.8412532 C14.8089386,86.0009207 13.1762258,83.5807545 12,83.5807545 C12.012808,83.5414697 13.4381535,83.5807545 16.2321235,83.5807545 C16.2876247,83.7113844 18.1333466,82.1459017 21.7692889,78.8843065 L13.6504001,72.6571892 C13.5952038,72.1337115 13.9144885,71.8719727 14.6082542,71.8719727 C15.30202,71.8719727 19.146397,73.2849473 26.1413854,76.1108966 Z" id="路径-9-copy-2" fill="#B85EFF" fill-rule="nonzero" opacity="0.699999988" mask="url(#mask-3)"></path>
                    <path d="M84.0645497,50.0351417 C86.3217044,48.2190611 87.8231204,47.723173 88.5687976,48.5474774 C89.3144749,49.3717818 88.3475126,50.6793966 85.6679108,52.4703216 L85.0721442,62.1280273 L82.7704664,54.6905708 L78.0886521,57.2007245 L77.4860488,60.5823279 C75.9991466,57.1165674 74.8371303,55.3836872 74,55.3836872 C74.0091156,55.3555586 75.0235466,55.3836872 77.0120399,55.3836872 C77.0515407,55.4772204 78.3651573,54.3563082 80.9528898,52.0209505 L75.1746044,47.5622284 C75.1353207,47.1874095 75.3625585,47 75.8563177,47 C76.350077,47 79.0861543,48.0117139 84.0645497,50.0351417 Z" id="路径-9-copy-3" fill="#9936FF" fill-rule="nonzero" mask="url(#mask-3)"></path>
                    <g id="Group-6-Copy-10" opacity="0.299999982" mask="url(#mask-3)">
                        <g transform="translate(216.000000, 107.000000)">
                            <polygon id="Path-30" fill="#9A45F1" points="13.8592179 0 25.7333333 6.65798298 13.8592179 13.3 2 6.63647147"></polygon>
                            <polygon id="Path-31" fill="url(#linearGradient-7)" points="13.392 44.9375606 25.7333333 45.05 25.7333333 6.65 13.392 13.4650911"></polygon>
                            <polygon id="Path-33" fill="#9A45F1" points="16.24 14.7697814 16.24 16.15 23.8346667 11.7844509 23.8346667 10.45"></polygon>
                            <polygon id="Path-33" fill="#9A45F1" points="16.24 16.6697814 16.24 18.05 23.8346667 13.6844509 23.8346667 12.35"></polygon>
                            <path d="M2.24465365,45.3602392 C4.55341016,45.8521447 6.73855013,45.4271862 8.80007357,44.0853637 C9.92905488,43.3505225 10.5101834,40.3827081 11.7883548,38.0613701 C12.0301054,37.6223172 12.5390695,35.7884905 13.022974,35.2199895 C13.2459065,34.9580836 13.6853597,34.9476213 14.3413333,35.1886024 L13.022974,6.65 L0.681640625,13.5371799 L2.24465365,45.3602392 Z" id="Path-31" fill="url(#linearGradient-5)" transform="translate(7.511487, 26.104086) scale(-1, 1) translate(-7.511487, -26.104086) "></path>
                        </g>
                    </g>
                    <g id="Group-6-Copy-12" opacity="0.199999988" mask="url(#mask-3)">
                        <g transform="translate(155.000000, 99.000000)">
                            <polygon id="Path-30" fill="#9A45F1" points="13.8592179 0 25.7333333 6.65798298 13.8592179 13.3 2 6.63647147"></polygon>
                            <polygon id="Path-31" fill="url(#linearGradient-4)" points="13.392 47.5 25.7333333 40.1977722 25.7333333 6.65 13.392 13.4650911"></polygon>
                            <polygon id="Path-33" fill="#9A45F1" points="16.24 14.7697814 16.24 16.15 23.8346667 11.7844509 23.8346667 10.45"></polygon>
                            <polygon id="Path-33" fill="#9A45F1" points="16.24 16.6697814 16.24 18.05 23.8346667 13.6844509 23.8346667 12.35"></polygon>
                            <polygon id="Path-31" fill="url(#linearGradient-5)" transform="translate(7.420667, 21.688441) scale(-1, 1) translate(-7.420667, -21.688441) " points="0.5 36.3386128 14.3413333 36.7268815 12.8413333 6.65 0.5 13.5371799"></polygon>
                        </g>
                    </g>
                    <g id="Group-6-Copy-13" opacity="0.199999988" mask="url(#mask-3)">
                        <g transform="translate(133.000000, 67.000000)">
                            <polygon id="Path-30" fill="#9A45F1" points="13.8592179 0 25.7333333 6.65798298 13.8592179 13.3 2 6.63647147"></polygon>
                            <polygon id="Path-31" fill="url(#linearGradient-4)" points="13.392 47.5 25.7333333 40.1977722 25.7333333 6.65 13.392 13.4650911"></polygon>
                            <polygon id="Path-33" fill="#9A45F1" points="16.24 14.7697814 16.24 16.15 23.8346667 11.7844509 23.8346667 10.45"></polygon>
                            <polygon id="Path-33" fill="#9A45F1" points="16.24 16.6697814 16.24 18.05 23.8346667 13.6844509 23.8346667 12.35"></polygon>
                            <polygon id="Path-31" fill="url(#linearGradient-5)" transform="translate(7.420667, 21.688441) scale(-1, 1) translate(-7.420667, -21.688441) " points="0.5 36.3386128 14.3413333 36.7268815 12.8413333 6.65 0.5 13.5371799"></polygon>
                        </g>
                    </g>
                    <g id="Group-6-Copy-11" opacity="0.299999982" mask="url(#mask-3)">
                        <g transform="translate(262.000000, 89.000000)">
                            <polygon id="Path-30" fill="#9A45F1" points="17.9887013 0 36 10.0120045 17.9887013 20 0 9.97965635"></polygon>
                            <polygon id="Path-31" fill="url(#linearGradient-4)" points="18 71 36 59.9170594 36 9 18 19.3435899"></polygon>
                            <polygon id="Path-33" fill="#9A45F1" points="22 21.8207074 22 24 33 17.1070278 33 15"></polygon>
                            <polygon id="Path-33" fill="#9A45F1" points="22 24.8207074 22 27 33 20.1070278 33 18"></polygon>
                            <polygon id="Path-31" fill="url(#linearGradient-5)" transform="translate(9.000000, 40.000000) scale(-1, 1) translate(-9.000000, -40.000000) " points="0 71 18 60.3989168 18 9 0 19.4530025"></polygon>
                        </g>
                    </g>
                    <g id="分组-6" opacity="0.299999982" mask="url(#mask-3)">
                        <g transform="translate(241.000000, 91.000000)" id="Group-6-Copy-3" opacity="0.5">
                            <g transform="translate(0.144784, 20.560714)">
                                <polygon id="Path-30" fill="#AE72FF" points="20.7936372 0 40.612139 11.3523859 20.7936372 22.6775485 1 11.3157071"></polygon>
                                <polygon id="Path-30" fill="#8954D1" points="20.7959682 2.06159532 36.898501 11.349911 20.7959682 20.6159532 4.71363803 11.3199011"></polygon>
                                <polygon id="Path-30" fill="#F39DF8" points="21.003706 3.29855251 34.8353688 11.1420191 21.003706 18.9666769 7.18939672 11.1166774"></polygon>
                                <polygon id="Path-31" fill="#8342D7" points="19.5604879 53.6892857 39.3665574 41.4542618 40.612139 11.1326147 20.8060695 22.5514316"></polygon>
                                <polygon id="Path-31" fill="#A03FEF" transform="translate(10.580643, 25.785950) scale(-1, 1) translate(-10.580643, -25.785950) " points="0.355215686 40.3154762 20.8060695 40.4392857 20.1612852 11.1326147 0.355215686 22.5331864"></polygon>
                            </g>
                        </g>
                    </g>
                    <g id="Page-1" opacity="0.299999982" mask="url(#mask-3)">
                        <g transform="translate(122.500000, 94.500000) scale(-1, 1) translate(-122.500000, -94.500000) translate(112.000000, 72.000000)">
                            <g id="Group-3" stroke-width="1" fill="none" transform="translate(2.390216, 39.968354)">
                                <mask id="mask-9" fill="white">
                                    <use xlink:href="#path-8"></use>
                                </mask>
                                <g id="Clip-2"></g>
                                <path d="M0.0652092784,3.69876212 C0.0652092784,3.69876212 1.25083252,5.45173463 3.55094161,2.68648222 C3.55094161,2.68648222 4.00147845,2.26675641 4.1674657,2.46427444 C4.1674657,2.46427444 4.1674657,2.83462074 4.78398979,2.56303345 C4.78398979,2.56303345 5.992377,2.21994463 5.89847564,1.47668429 L5.80362578,0.0693683318 C5.80362578,0.0693683318 0.539458576,0.365645376 0.0652092784,3.69876212" id="Fill-1" fill="#050101" mask="url(#mask-9)"></path>
                            </g>
                            <path d="M6.47240676,12.7314225 C6.47240676,12.7314225 5.15601965,17.2404705 1.70830779,16.9752968 L0.956086584,15.4833214 C0.956086584,15.4833214 3.99628261,13.2950908 5.03058677,9.84693678 C5.03058677,9.84693678 5.65944369,6.12217049 7.64869267,5.99525312 L6.47240676,12.7314225 Z" id="Fill-4" fill="#802ECA"></path>
                            <path d="M14.2859687,36.5519777 C14.2859687,36.5519777 13.1928927,38.0550661 13.0919317,38.5059926 C12.9909707,38.9569191 12.2823869,39.3326912 12.9543198,40.1343383 C12.9543198,40.1343383 15.9719095,40.8357796 16.2162487,38.1803234 C16.2162487,38.1803234 16.6071915,37.3035219 16.9248325,37.6041396 L17.9266234,36.25136 L17.2180396,34.4727054 L14.2859687,36.5519777 Z" id="Fill-8" fill="#050101"></path>
                            <path d="M8.8438009,21.6856694 C8.8438009,21.6856694 11.9183726,30.7123603 13.1616824,31.110231 C13.1616824,31.110231 14.3091096,34.4672647 14.0694031,36.8793557 C14.0694031,36.8793557 16.1788205,38.4459715 17.2095585,34.8651354 L16.7780868,32.2541091 C16.7780868,32.2541091 16.7541161,28.101334 14.8844052,27.3055927 C14.8844052,27.3055927 15.9151433,22.8792814 14.2851389,20.5417913 C12.6551346,18.2043011 8.8438009,21.6856694 8.8438009,21.6856694" id="Fill-10" fill="#4E2D16"></path>
                            <path d="M6.68726908,19.9841771 L5.87718774,25.4200727 L5.63892853,36.291864 C5.63892853,36.291864 5.42449523,40.5308652 5.01945456,40.7303476 C5.01945456,40.7303476 6.28222841,41.9771127 8.61716873,40.4809946 C8.61716873,40.4809946 8.26769011,38.2534743 8.93481592,36.4581326 C8.93481592,36.4581326 9.91968422,32.3687432 8.80777611,30.0081681 L10.9949957,22.9195607 L6.68726908,19.9841771 Z" id="Fill-12" fill="#4E2D16"></path>
                            <path d="M6.73707036,6.46230885 C6.73707036,6.46230885 5.74285867,10.1681471 6.51259577,13.251621 C6.51259577,13.251621 7.05064201,16.1029392 6.22028811,18.7885455 C6.22028811,18.7885455 5.71072214,23.198311 14.306184,22.0378307 C14.306184,22.0378307 15.4607896,17.4292308 14.306184,11.5606837 L13.0905767,6.90235042 L10.5169606,7.12197334 L8.6084937,5.74545091 C8.6084937,5.74545091 7.05776208,6.07200074 6.73707036,6.46230885" id="Fill-14" fill="#8931D7"></path>
                            <g id="Group-6" stroke-width="1" fill="none" transform="translate(9.799887, 13.655854)">
                                <polygon id="Path-30" fill="#BE8BE6" points="4.89686803 0.132524465 9.79988748 3.00786135 4.89686803 5.9671373 0 2.99827714"></polygon>
                                <polygon id="Path-31" fill="#BF7ACC" points="4.89994374 11.9263446 9.79988748 8.7616574 9.79988748 2.99941086 4.89994374 5.95297955"></polygon>
                                <polygon id="Path-31" fill="#BF86DC" transform="translate(2.449972, 7.458996) scale(-1, 1) translate(-2.449972, -7.458996) " points="0 11.9185807 4.89994374 8.91650321 4.89994374 2.99941086 0 5.95955399"></polygon>
                                <polygon id="Path-2" fill="#E3C0B5" points="2.93290822 4.77866344 2.93290822 7.16886028 1.50192367 6.16101238 1.50192367 3.91184303"></polygon>
                                <polygon id="Path-3" fill="#F1D6D2" points="2.94331582 4.78647738 7.87609731 1.88659828 6.44583053 1.04300505 1.5289595 3.92944416"></polygon>
                            </g>
                            <path d="M17.5435534,22.9818036 C17.5435534,22.9818036 16.8477454,23.4762118 16.8171493,23.7850463 C16.8171493,23.7850463 16.2658687,24.3701447 16.2811208,24.7114521 C16.2811208,24.7114521 15.9136004,25.1502759 17.8584266,24.9064849 C17.8584266,24.9064849 18.8385116,24.3376717 18.6088114,23.3462224 L17.5435534,22.9818036 Z" id="Fill-6" fill="#A966B2"></path>
                            <g id="Group-18" stroke-width="1" fill="none" transform="translate(13.146191, 6.994462)">
                                <mask id="mask-11" fill="white">
                                    <use xlink:href="#path-10"></use>
                                </mask>
                                <g id="Clip-17"></g>
                                <path d="M0.0209456777,0.0871713992 C0.0209456777,0.0871713992 1.72611555,1.60710867 2.70677567,2.3420223 C2.70677567,2.3420223 5.64885093,6.11701091 6.28158692,8.62251215 C6.28158692,8.62251215 6.75611519,13.6335146 5.80705866,16.7069629 C5.80705866,16.7069629 4.66819081,16.5398961 4.38347385,15.771509 L4.13036048,10.1591862 L0.682153366,5.08143713 L0.0209456777,0.0871713992 Z" id="Fill-16" fill="#8931D7" mask="url(#mask-11)"></path>
                            </g>
                            <path d="M9.52798806,7.97762522 L8.62291113,8.99287968 C8.62291113,8.99287968 8.52417905,6.7494552 8.78749749,6.53653964 C9.05081594,6.32372234 9.56086584,6.9950892 9.56086584,6.9950892 L9.52798806,7.97762522 Z" id="Fill-19" fill="#842BA9"></path>
                            <path d="M9.59184338,6.98411794 L9.56086584,7.99367083 C9.56086584,7.99367083 12.0415807,7.32060192 12.4291256,5.99142458 L12.4291256,4.74624205 L9.59184338,6.98411794 Z" id="Fill-21" fill="#D18B6A"></path>
                            <path d="M10.1009824,9.49248411 C10.1009824,9.49248411 12.8131209,7.47994066 13.1461905,6.90249619 L12.5117405,5.99525312 L9.79988748,7.89337665 C9.79988748,7.89337665 9.81549417,9.39350494 10.1009824,9.49248411" id="Fill-23" fill="#842BA9"></path>
                            <path d="M12.8699929,4.24663763 C12.8699929,4.24663763 11.0863727,2.70193303 8.12673596,2.35144537 C8.12673596,2.35144537 8.87517232,-0.740180189 11.6072875,0.166513959 C11.6072875,0.166513959 13.4563886,1.02283621 13.3830891,2.20657579 C13.3830891,2.20657579 13.3851415,3.46587322 12.8699929,4.24663763" id="Fill-25" fill="#E8453D"></path>
                            <path d="M11.4316914,3.30150521 C11.1309611,3.07972619 9.99940919,2.33999933 8.17902104,2.24832803 C8.15802452,2.24733484 8.13740463,2.25319465 8.11989185,2.26551019 C7.97423443,2.36810657 7.26873281,2.87066 6.95990519,3.19364493 C6.89964614,3.25651376 6.94210994,3.37182296 7.02684922,3.36715497 C7.6444103,3.33318792 8.15774206,3.41323892 8.33484717,3.56281312 C8.33484717,3.56281312 10.1606963,5.17575139 11.4526879,3.44730529 C11.4867719,3.40161862 11.4768857,3.33477702 11.4316914,3.30150521" id="Fill-27" fill="#E95852"></path>
                            <path d="M8.44828678,3.19464221 C8.44828678,3.19464221 8.18644429,4.91007402 8.59555478,5.63198286 C8.59555478,5.63198286 8.30101879,7.02667569 9.62643072,6.99389297 C9.62643072,6.99389297 12.6044841,6.64932991 12.9071689,4.07327802 L11.8517483,1.99841771 L8.44828678,3.19464221 Z" id="Fill-29" fill="#E39C79"></path>
                            <path d="M11.1844055,3.52938462 C11.1844055,3.52938462 11.389631,4.3597924 11.6737458,4.49001988 C11.6737458,4.49001988 11.910508,4.63656243 12.6681472,3.52938462 L10.9949957,2.74782435 L11.1844055,3.52938462 Z" id="Fill-31" fill="#3E0C0E"></path>
                            <path d="M12.8699929,4.24663763 C12.8699929,4.24663763 11.0863727,2.70193303 8.12673596,2.35144537 C8.12673596,2.35144537 8.87517232,-0.740180189 11.6072875,0.166513959 C11.6072875,0.166513959 13.4563886,1.02283621 13.3830891,2.20657579 C13.3830891,2.20657579 13.3851415,3.46587322 12.8699929,4.24663763" id="Fill-33" fill="#842BA9"></path>
                            <path d="M11.4316914,3.30150521 C11.1309611,3.07972619 9.99940919,2.33999933 8.17902104,2.24832803 C8.15802452,2.24733484 8.13740463,2.25319465 8.11989185,2.26551019 C7.97423443,2.36810657 7.26873281,2.87066 6.95990519,3.19364493 C6.89964614,3.25651376 6.94210994,3.37182296 7.02684922,3.36715497 C7.6444103,3.33318792 8.15774206,3.41323892 8.33484717,3.56281312 C8.33484717,3.56281312 10.1606963,5.17575139 11.4526879,3.44730529 C11.4867719,3.40161862 11.4768857,3.33477702 11.4316914,3.30150521" id="Fill-35" fill="#9631C0"></path>
                            <polygon id="Fill-40" fill="#263032" points="0.239021646 13.9889239 1.49917411 18.3563558 2.86825975 18.9849682 1.63919105 14.5679064"></polygon>
                            <polygon id="Fill-42" fill="#2E3939" points="0.239021646 13.9889239 1.49917411 18.3563558 2.86825975 18.9849682 1.63919105 14.5679064"></polygon>
                            <g id="Group-46" stroke-width="1" fill="none" transform="translate(0.000000, 15.487737)">
                                <mask id="mask-13" fill="white">
                                    <use xlink:href="#path-12"></use>
                                </mask>
                                <g id="Clip-45"></g>
                                <path d="M0.591578574,0.0751976034 C0.591578574,0.0751976034 -0.460116668,0.824604243 0.240981623,1.3777734 C0.240981623,1.3777734 1.19706821,1.69894768 1.35644784,1.12789982 C1.35644784,1.12789982 1.06761408,0.610488061 0.678200018,0.646138405 C0.678200018,0.646138405 0.83060022,0.324964131 0.591578574,0.0751976034" id="Fill-44" fill="#E9A37F" mask="url(#mask-13)"></path>
                            </g>
                            <path d="M0.26288005,16.4869461 C0.26288005,16.4869461 0.0345895574,17.8881881 0.990354366,18.1681596 C0.990354366,18.1681596 1.94033126,18.4466477 1.5992239,17.8714749 C1.5992239,17.8714749 1.81271251,17.5104095 1.36988968,17.361276 C1.36988968,17.361276 1.64922767,16.7506988 0.956101303,16.618773 L0.26288005,16.4869461 Z" id="Fill-47" fill="#D18B68"></path>
                        </g>
                    </g>
                    <g id="Page-1" opacity="0.299999982" mask="url(#mask-3)">
                        <g transform="translate(144.000000, 85.000000)">
                            <polygon id="Fill-1" fill="#B570A5" points="21.1377196 36.2213249 20.9802429 38.4201648 19.8149152 38.0432208 19.4999617 35.907205"></polygon>
                            <polygon id="Fill-2" fill="#B570A6" points="15.1536043 38.0432208 15.3740717 40.2106486 12.098556 40.2106486 12.6286856 38.9503993 13.4843511 39.126809 13.7363138 38.0432208"></polygon>
                            <g id="Group-23" stroke-width="1" fill="none" transform="translate(0.000000, 0.215612)">
                                <path d="M13.2638837,21.3048982 C13.2638837,21.3048982 11.9095839,24.6659819 12.5394908,30.5714374 L13.4843511,38.2673768 C13.4843511,38.2673768 15.0276229,39.3667967 15.4370624,37.9846688 L15.4370624,28.7495416 L17.0997646,22.972247 L17.3897737,21.9645502 L13.2638837,21.3048982 Z" id="Fill-3" fill="#69849E"></path>
                                <path d="M20.9172522,37.6077249 L19.9094012,37.0108969 C19.9094012,37.0108969 19.0590269,35.2518251 17.3897737,35.283237 C17.3897737,35.283237 16.12996,36.005713 18.3661294,37.3250169 C18.3661294,37.3250169 19.6259431,39.5866807 20.6967848,39.4924447 C20.6967848,39.4924447 21.9565985,39.2097367 20.9172522,37.6077249" id="Fill-5" fill="#BE846D"></path>
                                <g id="Group-9" transform="translate(9.314771, 38.196989)">
                                    <mask id="mask-15" fill="white">
                                        <use xlink:href="#path-14"></use>
                                    </mask>
                                    <g id="Clip-8"></g>
                                    <path d="M6.18528236,1.29827042 C6.18528236,1.29827042 3.64927729,2.21977277 3.85462693,0.69867821 C3.85462693,0.69867821 0.358643778,-0.463565692 0.106681028,0.69867821 C0.106681028,0.69867821 0.29565309,3.02316602 6.18528236,2.74045804 C6.18528236,2.74045804 6.94117061,2.52635386 6.18528236,1.29827042" id="Fill-7" fill="#BE846D" mask="url(#mask-15)"></path>
                                </g>
                                <path d="M17.3897737,28.6238936 L19.1850083,36.414069 C19.1850083,36.414069 20.7912708,37.6077249 21.1377196,36.005713 L20.2243546,29.1893096 L20.8227662,20.8651303 L17.2008016,22.5613781 L17.3897737,28.6238936 Z" id="Fill-10" fill="#69849E"></path>
                                <path d="M17.9881852,5.85019552 L17.9881852,7.16949941 L15.7835112,7.98621134 L15.7835112,7.48361938 C15.7835112,7.48361938 13.5473418,7.92338734 13.3583697,5.85019552 C13.3583697,5.85019552 13.0434163,2.86278892 13.8307999,1.78070844 C14.6181835,0.698627951 17.1693063,1.45251589 17.1693063,1.45251589 L17.9881852,5.85019552 Z" id="Fill-12" fill="#B36EA5"></path>
                                <g id="Group-16" transform="translate(19.645243, 11.810911)">
                                    <mask id="mask-17" fill="white">
                                        <use xlink:href="#path-16"></use>
                                    </mask>
                                    <g id="Clip-15"></g>
                                    <path d="M0.400595575,0.0285472232 C0.400595575,0.0285472232 3.08702241,2.04771041 1.23988349,4.64007973 C-0.607255422,7.23244905 0.400595575,0.0285472232 0.400595575,0.0285472232" id="Fill-14" fill="#B36FA5" mask="url(#mask-17)"></path>
                                </g>
                                <path d="M3.58691406,3.68457647 C3.97542119,5.95153222 3.97542119,7.5103486 3.58691406,8.36102561 C3.19840693,9.21170262 2.42203974,9.35282344 1.2578125,8.78438805 L1.2578125,4.69082261 L3.58691406,3.68457647 Z" id="Path-4" fill="#3D1E81" fill-rule="nonzero"></path>
                                <path d="M6.22983961,12.5096646 L3.79436768,9.32649844 C3.79436768,9.32649844 4.24563296,7.42092103 3.79436768,7.16962506 C3.79436768,7.16962506 3.34285043,6.94974107 3.43733646,7.98633699 C3.43733646,7.98633699 1.85849878,6.42134352 0.989746094,6.28948098 C0.703101795,6.24597303 1.30229532,6.67690021 0.989746094,6.94965707 C0.989746094,6.94965707 0.161820718,7.78680798 2.33499943,9.61423234 C2.33499943,9.61423234 5.07509433,17.1900522 8.9490216,13.5148485 C12.8229489,9.83964483 8.53958214,11.8394582 8.53958214,11.8394582 L6.22983961,12.5096646 Z" id="Fill-17" fill="#B36EA5"></path>
                                <path d="M19.7519245,3.52570771 C19.7519245,3.52570771 20.0668779,-0.369379959 15.6575298,0.0703880037 C15.6575298,0.0703880037 13.8307999,0.0357672638 13.8307999,1.78070844 C13.8307999,1.78070844 14.5866881,1.82945986 14.7126695,3.02311576 C14.7126695,3.02311576 14.3977161,4.27959565 14.5866881,4.78218761 L15.0276229,4.78218761 C15.0276229,4.78218761 14.8071555,3.80841569 15.6890252,3.55711971 C15.6890252,3.55711971 16.5708948,3.43147172 16.4764087,4.78218761 C16.4764087,4.78218761 16.4449134,5.50466355 16.1614553,5.56748754 L18.2086526,6.32137548 C18.2086526,6.32137548 19.7519245,5.19054357 19.7519245,3.52570771" id="Fill-19" fill="#1E1B3C"></path>
                                <path d="M17.4527644,7.04385142 L19.5944478,7.04385142 C19.5944478,7.04385142 20.7597755,7.92338734 20.6652895,12.226831 L21.1377196,21.3048982 C21.1377196,21.3048982 19.6259431,23.817858 16.9803342,23.3152661 C16.9803342,23.3152661 13.0434163,23.37809 12.6024815,21.8703142 L12.7914535,12.572363 C12.7914535,12.572363 8.69705886,14.4256708 8.50808679,14.0173148 L8.06715198,11.630003 L15.7835112,7.98621134 L17.4527644,7.04385142 Z" id="Fill-21" fill="#B195E5"></path>
                            </g>
                        </g>
                    </g>
                    <g id="箱子-copy" opacity="0.299999982" mask="url(#mask-3)">
                        <g transform="translate(181.000000, 130.000000)">
                            <rect id="Rectangle" fill="#000000" fill-rule="evenodd" opacity="0" x="0" y="0" width="21" height="21"></rect>
                            <path d="M15.9519609,6.5260166 L19.6533955,2.21562305 L19.6875,12.1252852 C19.6874551,12.2052018 19.6665901,12.2837281 19.6269609,12.353127 L15.9519609,18.784377 L15.9519609,6.5260166" id="Path" fill="#FCB814" fill-rule="evenodd"></path>
                            <path d="M15.9519609,6.5260166 L19.6533955,2.21562305 L19.6875,12.1252852 C19.6874551,12.2052018 19.6665901,12.2837281 19.6269609,12.353127 L15.9519609,18.784377 L15.9519609,6.5260166" id="Path" fill="#8738FC" fill-rule="evenodd"></path>
                            <path d="M1.3125,6.5260166 L6.76212305,2.21562305 L19.653375,2.21562305 L15.9722842,6.5260166 L1.3125,6.5260166 Z M1.3125,6.5260166 L15.9519609,6.5260166 L15.9519609,18.784377 L1.3125,18.784377 L1.3125,6.5260166 Z" id="Shape" fill="#AB6BF9" fill-rule="nonzero"></path>
                            <polygon id="Path" fill="#9750FF" fill-rule="evenodd" points="1.3125 6.5260166 15.9519609 6.5260166 15.9519609 18.784377 1.3125 18.784377"></polygon>
                            <path d="M7.71700781,6.5260166 L12.0004336,2.24263184 L14.0516045,2.24263184 L9.81300879,6.5260166 L7.71700781,6.5260166 Z M7.71700781,6.5260166 L9.81300879,6.5260166 L9.81300879,18.784377 L7.71700781,18.784377 L7.71700781,6.5260166 Z" id="Shape" fill="#BD93F9" fill-rule="nonzero"></path>
                            <polygon id="Path" fill="#8845E7" fill-rule="evenodd" points="7.71700781 6.5260166 9.81300879 6.5260166 9.81300879 18.784377 7.71700781 18.784377"></polygon>
                        </g>
                    </g>
                    <g id="箱子-copy-2" opacity="0.299999982" mask="url(#mask-3)">
                        <g transform="translate(200.000000, 129.000000)">
                            <rect id="Rectangle" fill="#000000" fill-rule="evenodd" opacity="0" x="0" y="0" width="16" height="16"></rect>
                            <path d="M12.153875,4.97220313 L14.9740156,1.68809375 L15,9.2383125 C14.9999658,9.29920141 14.9840687,9.3590309 14.953875,9.41190625 L12.153875,14.3119062 L12.153875,4.97220313" id="Path" fill="#FCB814" fill-rule="evenodd"></path>
                            <path d="M12.153875,4.97220313 L14.9740156,1.68809375 L15,9.2383125 C14.9999658,9.29920141 14.9840687,9.3590309 14.953875,9.41190625 L12.153875,14.3119062 L12.153875,4.97220313" id="Path" fill="#8738FC" fill-rule="evenodd"></path>
                            <path d="M1,4.97220313 L5.15209375,1.68809375 L14.974,1.68809375 L12.1693594,4.97220313 L1,4.97220313 Z M1,4.97220313 L12.153875,4.97220313 L12.153875,14.3119062 L1,14.3119062 L1,4.97220313 Z" id="Shape" fill="#AB6BF9" fill-rule="nonzero"></path>
                            <polygon id="Path" fill="#9750FF" fill-rule="evenodd" points="1 4.97220313 12.153875 4.97220313 12.153875 14.3119062 1 14.3119062"></polygon>
                            <path d="M5.879625,4.97220313 L9.1431875,1.70867188 L10.7059844,1.70867188 L7.47657812,4.97220313 L5.879625,4.97220313 Z M5.879625,4.97220313 L7.47657812,4.97220313 L7.47657812,14.3119062 L5.879625,14.3119062 L5.879625,4.97220313 Z" id="Shape" fill="#BD93F9" fill-rule="nonzero"></path>
                            <polygon id="Path" fill="#8845E7" fill-rule="evenodd" points="5.879625 4.97220313 7.47657812 4.97220313 7.47657812 14.3119062 5.879625 14.3119062"></polygon>
                        </g>
                    </g>
                    <g id="箱子" opacity="0.299999982" mask="url(#mask-3)">
                        <g transform="translate(193.000000, 121.000000)">
                            <rect id="Rectangle" fill="#000000" fill-rule="evenodd" opacity="0" x="0" y="0" width="14" height="14"></rect>
                            <path d="M10.6346406,4.35067773 L13.1022637,1.47708203 L13.125,8.08352344 C13.12497,8.13680123 13.1110601,8.18915204 13.0846406,8.23541797 L10.6346406,12.522918 L10.6346406,4.35067773" id="Path" fill="#FCB814" fill-rule="evenodd"></path>
                            <path d="M10.6346406,4.35067773 L13.1022637,1.47708203 L13.125,8.08352344 C13.12497,8.13680123 13.1110601,8.18915204 13.0846406,8.23541797 L10.6346406,12.522918 L10.6346406,4.35067773" id="Path" fill="#8738FC" fill-rule="evenodd"></path>
                            <path d="M0.875,4.35067773 L4.50808203,1.47708203 L13.10225,1.47708203 L10.6481895,4.35067773 L0.875,4.35067773 Z M0.875,4.35067773 L10.6346406,4.35067773 L10.6346406,12.522918 L0.875,12.522918 L0.875,4.35067773 Z" id="Shape" fill="#AB6BF9" fill-rule="nonzero"></path>
                            <polygon id="Path" fill="#9750FF" fill-rule="evenodd" points="0.875 4.35067773 10.6346406 4.35067773 10.6346406 12.522918 0.875 12.522918"></polygon>
                            <path d="M5.14467188,4.35067773 L8.00028906,1.49508789 L9.36773633,1.49508789 L6.54200586,4.35067773 L5.14467188,4.35067773 Z M5.14467188,4.35067773 L6.54200586,4.35067773 L6.54200586,12.522918 L5.14467188,12.522918 L5.14467188,4.35067773 Z" id="Shape" fill="#BD93F9" fill-rule="nonzero"></path>
                            <polygon id="Path" fill="#8845E7" fill-rule="evenodd" points="5.14467188 4.35067773 6.54200586 4.35067773 6.54200586 12.522918 5.14467188 12.522918"></polygon>
                        </g>
                    </g>
                </g>
            </g>
        </g>
    </g>
</svg>